<svg xmlns="http://www.w3.org/2000/svg" viewBox="0 0 500 500"><g id="freepik--background-complete--inject-76"><path d="M87.71,316.58l-13.13.28-6.66.11c-2.22,0-4.46,0-6.69,0h-.45v-.45l-.05-11.19v-.5h.51l13.24.06c4.41,0,8.82.12,13.24.17H88v.27c0,1.9-.09,3.79-.13,5.65Zm0,0-.15-5.65c0-1.87-.11-3.71-.13-5.54l.28.27c-4.42,0-8.83.16-13.24.17l-13.24.06.5-.5-.06,11.19-.44-.45c2.18,0,4.35,0,6.54.06l6.58.11Z" style="fill:#ebebeb"></path><path d="M72.93,330.69,59.81,331l-6.66.11c-2.23.05-4.46,0-6.7.05H46v-.45L46,319.5V319h.5l13.24.06c4.42,0,8.83.11,13.24.17h.28v.27c0,1.9-.09,3.79-.13,5.65Zm0,0L72.79,325c0-1.86-.11-3.7-.13-5.53l.27.27c-4.41.05-8.82.16-13.24.17L46.45,320l.5-.5-.05,11.19-.45-.45c2.19,0,4.36,0,6.55.06l6.58.11Z" style="fill:#ebebeb"></path><path d="M103.16,330.69,90,331l-6.66.11c-2.23.05-4.46,0-6.7.05h-.44v-.45l-.06-11.19V319h.5l13.24.06c4.42,0,8.83.11,13.24.17h.28v.27c0,1.9-.09,3.79-.13,5.65Zm0,0L103,325c0-1.86-.11-3.7-.13-5.53l.27.27c-4.41.05-8.82.16-13.24.17L76.68,320l.5-.5-.05,11.19-.45-.45c2.19,0,4.36,0,6.55.06l6.58.11Z" style="fill:#ebebeb"></path><path d="M237.79,197.74l-13.12.28-6.67.11c-2.22.05-4.46,0-6.69.06h-.44v-.45l-.05-11.19v-.5h.5l13.24.06c4.41,0,8.83.12,13.24.17h.28v.27c0,1.9-.08,3.79-.13,5.65Zm0,0-.14-5.65c-.05-1.87-.11-3.71-.13-5.54l.27.27c-4.41.05-8.83.16-13.24.17l-13.24.06.5-.5-.05,11.19-.45-.45c2.18,0,4.36,0,6.55.06l6.57.11Z" style="fill:#ebebeb"></path><path d="M453.77,330.69l-13.12.28-6.66.11c-2.23.05-4.47,0-6.7.05h-.44v-.45l-.06-11.19V319h.5l13.24.06c4.42,0,8.83.11,13.24.17h.28v.27c0,1.9-.08,3.79-.13,5.65Zm0,0-.14-5.66c-.05-1.86-.11-3.7-.13-5.53l.27.27c-4.41.05-8.82.16-13.24.17l-13.24.06.5-.5-.05,11.19-.45-.45c2.18,0,4.36,0,6.55.06l6.58.11Z" style="fill:#ebebeb"></path><path d="M439,62.86l-13.12.28-6.67.11c-2.22,0-4.46,0-6.69.06h-.44v-.45L412,51.67v-.5h.5l13.24.07c4.41,0,8.83.11,13.24.16h.28v.27c0,1.9-.08,3.79-.13,5.66Zm0,0-.14-5.65c-.05-1.86-.11-3.7-.13-5.54L439,52c-4.41,0-8.83.16-13.24.16l-13.24.06.5-.5,0,11.19-.45-.44c2.18,0,4.36,0,6.55,0l6.57.11Z" style="fill:#ebebeb"></path><path d="M453.77,77l-13.12.28-6.66.11c-2.23,0-4.47,0-6.7.06h-.44V77l-.06-11.19v-.5h.5l13.24.07c4.42,0,8.83.11,13.24.16h.28v.27c0,1.9-.08,3.79-.13,5.66Zm0,0-.14-5.65c-.05-1.86-.11-3.71-.13-5.54l.27.28c-4.41,0-8.82.16-13.24.16l-13.24.06.5-.5L427.74,77l-.45-.44c2.18,0,4.36,0,6.55,0l6.58.11Z" style="fill:#ebebeb"></path><path d="M87.71,62.86l-13.13.28-6.66.11c-2.22,0-4.46,0-6.69.06h-.45v-.45l-.05-11.19v-.5h.51l13.24.07c4.41,0,8.82.11,13.24.16H88v.27c0,1.9-.09,3.79-.13,5.66Zm0,0-.15-5.65c0-1.86-.11-3.7-.13-5.54l.28.28c-4.42,0-8.83.16-13.24.16l-13.24.06.5-.5-.06,11.19-.44-.44c2.18,0,4.35,0,6.54,0l6.58.11Z" style="fill:#ebebeb"></path><rect x="75.87" y="186.56" width="107.5" height="258.9" transform="translate(259.24 632.02) rotate(180)" style="fill:#ebebeb"></rect><rect x="71.63" y="182.07" width="115.97" height="4.49" transform="translate(259.24 368.63) rotate(180)" style="fill:#dbdbdb"></rect><rect x="41.45" y="182.07" width="30.18" height="4.49" transform="translate(113.09 368.63) rotate(180)" style="fill:#ebebeb"></rect><rect x="46.23" y="186.56" width="29.64" height="258.9" transform="translate(122.1 632.02) rotate(180)" style="fill:#dbdbdb"></rect><path d="M174,387.53H85.28V348.7H174Zm-88.43-.25h88.18V349H85.53Z" style="fill:#c7c7c7"></path><rect x="125.84" y="360.06" width="13.37" height="7.68" transform="translate(265.04 727.79) rotate(180)" style="fill:#c7c7c7"></rect><path d="M135.38,367.28H121.76v-6.77h13.62ZM122,367h13.12v-6.27H122Z" style="fill:#c7c7c7"></path><path d="M174,436.28H85.28V397.45H174ZM85.53,436h88.18V397.7H85.53Z" style="fill:#c7c7c7"></path><rect x="125.84" y="408.8" width="13.37" height="7.68" transform="translate(265.04 825.29) rotate(180)" style="fill:#c7c7c7"></rect><path d="M135.38,416H121.76v-6.77h13.62ZM122,415.78h13.12v-6.27H122Z" style="fill:#c7c7c7"></path><path d="M174,338.79H85.28V300H174Zm-88.43-.25h88.18V300.2H85.53Z" style="fill:#c7c7c7"></path><rect x="125.84" y="311.31" width="13.37" height="7.68" transform="translate(265.04 630.3) rotate(180)" style="fill:#c7c7c7"></rect><path d="M135.38,318.54H121.76v-6.78h13.62ZM122,318.29h13.12V312H122Z" style="fill:#c7c7c7"></path><path d="M174,290H85.28V251.21H174Zm-88.43-.25h88.18V251.46H85.53Z" style="fill:#c7c7c7"></path><rect x="125.84" y="262.56" width="13.37" height="7.68" transform="translate(265.04 532.81) rotate(180)" style="fill:#c7c7c7"></rect><path d="M135.38,269.79H121.76V263h13.62ZM122,269.54h13.12v-6.27H122Z" style="fill:#c7c7c7"></path><rect x="85.4" y="202.73" width="78.44" height="38.58" transform="translate(249.24 444.04) rotate(180)" style="fill:#a6a6a6"></rect><rect x="102.07" y="192.85" width="52.1" height="37.76" style="fill:#c7c7c7"></rect><polygon points="135.76 188.94 154.17 188.94 154.17 192.85 134.7 192.85 135.76 188.94" style="fill:#c7c7c7"></polygon><polygon points="102.2 230.61 154.3 230.61 158.32 195.98 106.22 195.98 102.2 230.61" style="fill:#a6a6a6"></polygon><polygon points="140.33 192.39 158.74 192.39 158.32 195.98 138.86 195.98 140.33 192.39" style="fill:#a6a6a6"></polygon><rect x="128.37" y="202.73" width="88.44" height="38.58" transform="translate(345.18 444.04) rotate(180)" style="fill:#ebebeb"></rect><path d="M216.93,241.44H128.25V202.6h88.68Zm-88.43-.25h88.18V202.85H128.5Z" style="fill:#c7c7c7"></path><rect x="167.88" y="213.96" width="13.37" height="7.68" transform="translate(349.13 435.6) rotate(180)" style="fill:#c7c7c7"></rect><path d="M177.42,221.19H163.81v-6.77h13.61Zm-13.36-.25h13.11v-6.27H164.06Z" style="fill:#c7c7c7"></path><rect x="85.4" y="208.51" width="42.8" height="32.8" transform="translate(213.61 449.82) rotate(180)" style="fill:#dbdbdb"></rect><rect x="72.76" y="141.48" width="51.29" height="40.61" style="fill:#ebebeb"></rect><rect x="72.76" y="141.48" width="51.29" height="40.61" style="fill:#ebebeb"></rect><rect x="124.06" y="141.5" width="19.49" height="40.61" style="fill:#c7c7c7"></rect><polygon points="72.76 161.77 124.06 161.79 84 162.82 72.76 161.77" style="fill:#c7c7c7"></polygon><polygon points="124.05 177.19 72.76 177.17 112.81 178.23 124.05 177.19" style="fill:#c7c7c7"></polygon><polygon points="72.77 150.42 105.26 150.44 76.38 151.28 72.77 150.42" style="fill:#c7c7c7"></polygon><polygon points="124.05 171.22 91.56 171.2 120.44 172.07 124.05 171.22" style="fill:#c7c7c7"></polygon><polygon points="85.08 145.91 121.72 145.92 115.61 146.43 85.08 145.91" style="fill:#c7c7c7"></polygon><polygon points="77.75 166.13 114.39 166.15 108.29 166.65 77.75 166.13" style="fill:#c7c7c7"></polygon><polygon points="100.29 154.3 124.06 154.31 128.31 155.68 100.29 154.3" style="fill:#ebebeb"></polygon><polygon points="100.29 154.3 124.06 154.31 128.31 155.68 100.29 154.3" style="fill:#ebebeb"></polygon><polygon points="66.22 154.28 89.99 154.29 94.24 155.66 66.22 154.28" style="fill:#dbdbdb"></polygon><polygon points="96.71 172.55 72.94 172.54 68.69 173.9 96.71 172.55" style="fill:#dbdbdb"></polygon><polygon points="124.06 167.93 143.14 167.94 147.39 169.3 124.06 167.93" style="fill:#c7c7c7"></polygon><polygon points="130.72 161.8 145.52 161.81 143.55 160.69 130.72 161.8" style="fill:#c7c7c7"></polygon><rect x="274.26" y="81.23" width="59.11" height="38.59" style="fill:#dbdbdb"></rect><rect x="274.26" y="122.09" width="59.11" height="38.59" style="fill:#ebebeb"></rect><rect x="280.11" y="129.51" width="5.75" height="5.75" style="fill:#fff"></rect><rect x="287.05" y="129.51" width="5.75" height="5.75" style="fill:#c7c7c7"></rect><rect x="294" y="129.51" width="5.75" height="5.75" style="fill:#fff"></rect><rect x="300.94" y="129.51" width="5.75" height="5.75" style="fill:#fff"></rect><rect x="307.89" y="129.51" width="5.75" height="5.75" style="fill:#fff"></rect><rect x="314.83" y="129.51" width="5.75" height="5.75" style="fill:#fff"></rect><rect x="321.77" y="129.51" width="5.75" height="5.75" style="fill:#fff"></rect><rect x="280.11" y="136.5" width="5.75" height="5.75" style="fill:#fff"></rect><rect x="287.05" y="136.5" width="5.75" height="5.75" style="fill:#fff"></rect><rect x="294" y="136.5" width="5.75" height="5.75" style="fill:#fff"></rect><rect x="300.94" y="136.5" width="5.75" height="5.75" style="fill:#fff"></rect><rect x="307.89" y="136.5" width="5.75" height="5.75" style="fill:#c7c7c7"></rect><rect x="314.83" y="136.5" width="5.75" height="5.75" style="fill:#fff"></rect><rect x="321.77" y="136.5" width="5.75" height="5.75" style="fill:#fff"></rect><rect x="280.11" y="143.49" width="5.75" height="5.75" style="fill:#fff"></rect><rect x="287.05" y="143.49" width="5.75" height="5.75" style="fill:#fff"></rect><rect x="294" y="143.49" width="5.75" height="5.75" style="fill:#fff"></rect><rect x="300.94" y="143.49" width="5.75" height="5.75" style="fill:#fff"></rect><rect x="307.89" y="143.49" width="5.75" height="5.75" style="fill:#fff"></rect><rect x="314.83" y="143.49" width="5.75" height="5.75" style="fill:#fff"></rect><rect x="321.77" y="143.49" width="5.75" height="5.75" style="fill:#fff"></rect><rect x="280.11" y="150.49" width="5.75" height="5.75" style="fill:#fff"></rect><rect x="287.05" y="150.49" width="5.75" height="5.75" style="fill:#fff"></rect><rect x="294" y="150.49" width="5.75" height="5.75" style="fill:#c7c7c7"></rect><rect x="300.94" y="150.49" width="5.75" height="5.75" style="fill:#fff"></rect><rect x="307.89" y="150.49" width="5.75" height="5.75" style="fill:#fff"></rect><rect x="314.83" y="150.49" width="5.75" height="5.75" style="fill:#fff"></rect><rect x="321.77" y="150.49" width="5.75" height="5.75" style="fill:#fff"></rect><rect x="276.58" y="117.99" width="2.24" height="5.93" style="fill:#c7c7c7"></rect><rect x="281.8" y="117.99" width="2.24" height="5.93" style="fill:#c7c7c7"></rect><rect x="287.02" y="117.99" width="2.24" height="5.93" style="fill:#c7c7c7"></rect><rect x="292.25" y="117.99" width="2.24" height="5.93" style="fill:#c7c7c7"></rect><rect x="297.47" y="117.99" width="2.24" height="5.93" style="fill:#c7c7c7"></rect><rect x="302.69" y="117.99" width="2.24" height="5.93" style="fill:#c7c7c7"></rect><rect x="307.92" y="117.99" width="2.24" height="5.93" style="fill:#c7c7c7"></rect><rect x="313.14" y="117.99" width="2.24" height="5.93" style="fill:#c7c7c7"></rect><rect x="318.36" y="117.99" width="2.24" height="5.93" style="fill:#c7c7c7"></rect><rect x="323.59" y="117.99" width="2.24" height="5.93" style="fill:#c7c7c7"></rect><rect x="328.81" y="117.99" width="2.24" height="5.93" style="fill:#c7c7c7"></rect><circle cx="303.82" cy="85.18" r="0.94" style="fill:#263238"></circle></g><g id="freepik--Floor--inject-76"><polygon points="41.45 444.96 93.59 444.72 145.73 444.63 250 444.46 354.27 444.63 406.41 444.71 458.55 444.96 406.41 445.2 354.27 445.29 250 445.46 145.73 445.29 93.59 445.2 41.45 444.96" style="fill:#263238"></polygon></g><g id="freepik--Plant--inject-76"><path d="M410.59,340.52a41.56,41.56,0,0,1-.81,15.94,43.52,43.52,0,0,1-2.44,7.05c-1.27,2.91-2.59,5.76-2.28,8.95.31.21-.74.18-.78-.13-8.53-4.86-19.46-5.75-26-13.69-3.11-3.76-4.67-8.52-5.42-13.29-.81-5.19-1-10.94.31-16.05,1.13-4.33,3.66-8.5,7.72-10.62s9.69-2,14.11-.63C404.5,321,409.24,331.3,410.59,340.52Z" style="fill:#FFC727"></path><path d="M415,403.65c-1.17-3.88-2.33-7.76-3.53-11.63-2.34-7.58-4.77-15.13-7.46-22.59q-2.42-6.71-5.11-13.29a82.75,82.75,0,0,1,1-8.24c.72-3.31,1.75-6.5,2.72-9.74.05-.19-.27-.3-.35-.11-1.91,4.46-4.41,10.16-4.47,15.44-2.09-5-4.31-9.85-6.71-14.67a63.3,63.3,0,0,1,.38-12.22c0-.19-.26-.24-.29-.06a43.19,43.19,0,0,0-.83,10.79c-1.84-3.62-3.77-7.19-5.82-10.72-.19-.31-.63,0-.47.32,3.21,6.18,6.18,12.48,9,18.86a40.84,40.84,0,0,0-13.37-7.74c-.21-.08-.37.23-.16.32A48.65,48.65,0,0,1,394,348q3,7,5.73,14.13c-5.34-5.23-12.64-8.67-19.7-10.52-.24-.06-.31.31-.08.38,8.18,2.46,14.53,7.09,20.75,12.66.72,1.92,1.43,3.85,2.12,5.77,2.64,7.31,5.13,14.67,7.53,22.06,1.14,3.55,2.27,7.09,3.38,10.65,1.2,3.82,2.13,7.86,3.68,11.56.15.35.78.27.7-.16A111.25,111.25,0,0,0,415,403.65Z" style="fill:#263238"></path><path d="M400.82,333.05a21.1,21.1,0,0,0-3.07,7.66.06.06,0,0,0,.12,0,66.2,66.2,0,0,1,3.33-7.51C401.33,333,401,332.83,400.82,333.05Z" style="fill:#263238"></path><path d="M385.6,350.82a22.49,22.49,0,0,0-7.65-2.58c-.07,0-.11.1,0,.13,1.23.51,2.52.86,3.77,1.34s2.47,1.07,3.73,1.51A.22.22,0,0,0,385.6,350.82Z" style="fill:#263238"></path><path d="M381.32,329.44a15.68,15.68,0,0,0-2.46-1.52.14.14,0,0,0-.15.22,14.82,14.82,0,0,0,2.43,1.57C381.3,329.81,381.47,329.55,381.32,329.44Z" style="fill:#263238"></path><path d="M439.34,369.48c-6.14,1.83-12.32,3.51-18.46,5.32-.53.15-10.91-19.74-7.16-30A33.45,33.45,0,0,1,434.6,325c4.38-1.49,9.77-2.75,14.41-1.72,4.12.91,7,4.28,8.37,8.15,1.82,5.27,1.21,11.55.22,16.93a29.66,29.66,0,0,1-6,13.81C448.29,366.05,444.13,368.06,439.34,369.48Z" style="fill:#FFC727"></path><path d="M448.25,350.57a81,81,0,0,1-12.05,4.74,50.34,50.34,0,0,0-8,2.92c2.6-5.79,5.44-11.45,8.46-17.06,4-1.15,8.15-2.94,11.14-5.75a.17.17,0,0,0-.22-.26c-3.28,2.32-6.89,3.7-10.51,5.27.82-1.51,1.64-3,2.48-4.52.24-.42-.34-.84-.62-.43a128.78,128.78,0,0,0-8.73,14.66,67,67,0,0,1-.63-13.43.09.09,0,0,0-.18,0,44.86,44.86,0,0,0,.15,14.76c-2.15,4.3-4.11,8.7-5.88,13.16-.7-2.68-1.61-5.31-2.22-8a37.08,37.08,0,0,1-.88-11.83c0-.11-.16-.12-.18,0a41.7,41.7,0,0,0,2.58,21.7c-1,2.69-2,5.38-2.9,8.08a160.5,160.5,0,0,0-8.15,42.62.26.26,0,0,0,.51,0,211.33,211.33,0,0,1,9.16-42.12c1.78-5.35,3.83-10.55,6.08-15.65,3.63-1.08,7.24-2.53,10.81-3.77a33.64,33.64,0,0,0,9.95-4.88C448.5,350.69,448.37,350.51,448.25,350.57Z" style="fill:#263238"></path><path d="M454,344.79c-3.75,1.34-7.31,3.21-11.07,4.56-.17.07-.07.35.11.31,4-.82,7.91-2.05,11.11-4.65C454.24,344.91,454.1,344.75,454,344.79Z" style="fill:#263238"></path><path d="M423.3,336.69c0-.2-.25-.32-.31-.11-1,3.46-1.74,7.14-.74,10.68,0,.13.26.14.27,0C422.7,343.67,422.5,340.2,423.3,336.69Z" style="fill:#263238"></path><path d="M438.82,328.69a9.18,9.18,0,0,0-1.63,5.89c0,.13.22.21.25.05.46-2,1.23-3.79,1.83-5.71A.26.26,0,0,0,438.82,328.69Z" style="fill:#263238"></path><path d="M366.28,378.26c1.8,5.72,6.08,13.62,12.85,13.68,4.4,0,8.82-.48,13.22-.54,4.72-.08,9.44-.06,14.15.22.39,0-.56-14.12-11.9-21-3.17-1.93-7.06-2.54-10.66-3.32A49,49,0,0,0,371.35,366c-2.61.1-4.77.65-5.7,3.32S365.41,375.54,366.28,378.26Z" style="fill:#FFC727"></path><path d="M371.15,371.11c2.76.71,5.54,1.52,8.3,2.4a30,30,0,0,0-2.28-2.23c-1.19-1-2.5-1.78-3.77-2.64-.11-.07,0-.28.09-.22a15.58,15.58,0,0,1,6.69,5.31c3.44,1.12,6.85,2.34,10.14,3.69a38.44,38.44,0,0,1,6.49,3.42,25.94,25.94,0,0,0-2.35-4.09c-1.5-1.95-3.54-3-5.51-4.42a.18.18,0,0,1,.18-.3,16.14,16.14,0,0,1,8.84,9.59,37.85,37.85,0,0,1,6.43,5.83c7.49,8.52,13.4,19.85,13.42,31.42,0,.27-.44.35-.49.06A64.15,64.15,0,0,0,403,388.22q-.81-.95-1.65-1.8a51.27,51.27,0,0,0-6.2-.46c-2.41,0-4.8.35-7.21.55-4,.32-8.33.37-11.9-1.62-.15-.09-.05-.37.13-.3,8,2.89,16.3-.78,24.27,1A37,37,0,0,0,388.71,378l-.73-.29c-5.1.61-10.49,1.94-15.47.28a.12.12,0,0,1,.07-.23c4.8,1.2,9.41-.31,14.15-.55-5.16-2-10.42-3.61-15.6-5.61C370.69,371.39,370.68,371,371.15,371.11Z" style="fill:#263238"></path><path d="M368.9,376.13a66.17,66.17,0,0,0,7.43.57c.06,0,.08.09,0,.1a15.39,15.39,0,0,1-7.5-.48C368.73,376.29,368.78,376.11,368.9,376.13Z" style="fill:#263238"></path><path d="M385.68,371.23a12.13,12.13,0,0,1,3.68,2.56c.13.12,0,.35-.18.24-.63-.45-1.27-.88-1.92-1.3a17.41,17.41,0,0,1-1.79-1.13A.22.22,0,0,1,385.68,371.23Z" style="fill:#263238"></path><path d="M425.7,389.63c-.08.19.19.37.29.17h0a.32.32,0,0,0,.18.12A116.26,116.26,0,0,0,440,392.32c3.74.33,8.06.54,11.34-1.63,4.45-2.95,7.37-10.83,5-15.84-2.84-5.94-11.41-2.71-15.71-.6A31.57,31.57,0,0,0,425.7,389.63Z" style="fill:#FFC727"></path><path d="M422.38,392.38a44.28,44.28,0,0,1,8.27-6.29,28.09,28.09,0,0,1,8.38-8.54c.16-.12.3.14.15.26a37.62,37.62,0,0,0-7.06,7.43,76.43,76.43,0,0,1,10.37-4.72,13.73,13.73,0,0,1,5.57-5.58c.05,0,.11,0,.06.07a22.88,22.88,0,0,0-5,5.28c2.1-.78,4.23-1.52,6.36-2.22.19-.06.26.23.08.3-3.78,1.48-7.66,3-11.41,4.84a44.18,44.18,0,0,0,13.82,0c.13,0,.18.16.05.19a27.14,27.14,0,0,1-14.66.22,68.37,68.37,0,0,0-6.95,3.9,17.06,17.06,0,0,1,5.62.46,43.27,43.27,0,0,0,9.88,1.12c.12,0,.15.2,0,.22-5.73,1-11.15-1.62-16.83-.94a41.91,41.91,0,0,0-14.54,17c-2.39,4.87-3.69,10-5.62,15.05a.18.18,0,0,1-.35-.1C410.22,410.38,415.16,399.45,422.38,392.38Z" style="fill:#263238"></path><path d="M439.66,378.79a6.44,6.44,0,0,1,1.47-1.78,5.82,5.82,0,0,1,1.69-1.27c.06,0,.09.06.06.1-.47.53-1.13.92-1.64,1.43s-.93,1.12-1.45,1.62A.08.08,0,0,1,439.66,378.79Z" style="fill:#263238"></path><path d="M449.11,381.87c.85-.22,1.75-.2,2.61-.38a24.73,24.73,0,0,0,2.54-.76c.11,0,.17.13.08.19a8.41,8.41,0,0,1-5.23,1.21A.14.14,0,0,1,449.11,381.87Z" style="fill:#263238"></path><polygon points="398.77 408.08 399.52 416.62 402.07 445.46 424.66 445.46 427.85 416.62 428.79 408.08 398.77 408.08" style="fill:#37474f"></polygon><polygon points="398.77 408.08 399.52 416.62 427.85 416.62 428.79 408.08 398.77 408.08" style="fill:#263238"></polygon><rect x="396.53" y="405.75" width="34.49" height="6.93" transform="translate(827.56 818.43) rotate(180)" style="fill:#37474f"></rect></g><g id="freepik--Clock--inject-76"><circle cx="148.94" cy="84.97" r="37.83" style="fill:#FFC727"></circle><circle cx="150.68" cy="85.82" r="36.1" transform="translate(-9.29 18.88) rotate(-6.96)" style="opacity:0.1"></circle><circle cx="150.68" cy="85.82" r="33.82" transform="translate(-5.07 9.58) rotate(-3.58)" style="fill:#fff"></circle><path d="M183.73,78.64c-15.4,9.33-40.71,24.64-54.86,33a33.88,33.88,0,0,1-9.24-12.43l46.79-43.36A33.88,33.88,0,0,1,183.73,78.64Z" style="fill:#ebebeb;opacity:0.5"></path><path d="M184.47,87a33.47,33.47,0,0,1-2.24,11l-42.17,19.94a33.17,33.17,0,0,1-5.33-2.29C147.47,108.28,170.75,94.89,184.47,87Z" style="fill:#ebebeb;opacity:0.5"></path><rect x="150.35" y="54.45" width="0.65" height="5.13" style="fill:#263238"></rect><rect x="135.95" y="58.31" width="0.65" height="5.13" transform="translate(-12.18 76.29) rotate(-30)" style="fill:#263238"></rect><rect x="125.41" y="68.85" width="0.65" height="5.13" transform="translate(1.01 144.59) rotate(-60)" style="fill:#263238"></rect><rect x="119.31" y="85.49" width="5.13" height="0.65" style="fill:#263238"></rect><rect x="123.17" y="99.89" width="5.13" height="0.65" transform="translate(-33.26 76.3) rotate(-30)" style="fill:#263238"></rect><rect x="133.71" y="110.43" width="5.13" height="0.65" transform="translate(-27.74 173.49) rotate(-60.03)" style="fill:#263238"></rect><rect x="150.35" y="112.05" width="0.65" height="5.13" style="fill:#263238"></rect><rect x="164.75" y="108.19" width="0.65" height="5.13" transform="translate(-33.26 97.38) rotate(-30)" style="fill:#263238"></rect><rect x="175.29" y="97.65" width="0.65" height="5.13" transform="translate(1.01 202.19) rotate(-60)" style="fill:#263238"></rect><rect x="176.91" y="85.49" width="5.13" height="0.65" style="fill:#263238"></rect><rect x="173.05" y="71.09" width="5.13" height="0.65" transform="translate(-12.18 97.39) rotate(-30)" style="fill:#263238"></rect><rect x="162.51" y="60.55" width="5.13" height="0.65" transform="translate(29.87 173.46) rotate(-60.03)" style="fill:#263238"></rect><polygon points="175.65 100.65 147.9 86.08 149.52 83.31 176.09 99.9 175.65 100.65" style="fill:#FFC727"></polygon><polygon points="150.39 108.61 149 83.64 152.21 83.69 151.26 108.62 150.39 108.61" style="fill:#455a64"></polygon><path d="M151.77,85.82a1.1,1.1,0,1,1-1.09-1.1A1.09,1.09,0,0,1,151.77,85.82Z" style="fill:#263238"></path></g><g id="freepik--coffee-machine--inject-76"><rect x="301.22" y="224.95" width="156.76" height="16.57" style="fill:#455a64"></rect><rect x="304.01" y="241.52" width="151.19" height="5.38" style="fill:#455a64"></rect><rect x="304.01" y="241.52" width="151.19" height="1.78" style="fill:#263238"></rect><polygon points="305.1 445.46 300.65 445.46 313.6 246.9 324.94 246.9 305.1 445.46" style="fill:#455a64"></polygon><polygon points="324.94 246.91 323.61 260.19 312.73 260.19 313.6 246.91 324.94 246.91" style="fill:#263238"></polygon><polygon points="454.1 445.46 458.55 445.46 445.61 246.9 434.26 246.9 454.1 445.46" style="fill:#455a64"></polygon><polygon points="434.26 246.91 435.59 260.19 446.47 260.19 445.61 246.91 434.26 246.91" style="fill:#263238"></polygon><rect x="321.25" y="222.46" width="15.83" height="2.47" transform="translate(-0.35 0.52) rotate(-0.09)" style="fill:#dbdbdb"></rect><rect x="321.25" y="222.46" width="15.83" height="1.63" transform="translate(-0.36 0.53) rotate(-0.09)" style="fill:#c7c7c7"></rect><path d="M302.44,215.86a9,9,0,0,0,8.92,3.8,8.57,8.57,0,0,0,1.61-.47,11,11,0,0,0,2.24-1.18l-2-3a7.66,7.66,0,0,1-1.19.67,5.25,5.25,0,0,1-6.63-1.93c-2.17-3.05-3-10-.77-12.7.15-.19.78-.51,3.33,0,.48.11,1,.22,1.61.39a6.78,6.78,0,0,0,1.45.31l.06-1.79.18-1.79a7.43,7.43,0,0,1-.76-.2,24.35,24.35,0,0,0-3.6-.74c-1.88-.19-3.85,0-5.05,1.52C298.26,203.19,299.72,212,302.44,215.86Z" style="fill:#dbdbdb"></path><path d="M313.19,215a7.66,7.66,0,0,1-1.19.67l1,3.48a11,11,0,0,0,2.24-1.18Z" style="fill:#c7c7c7"></path><path d="M306.87,197.29l1.06,3.82c.48.11,1,.22,1.61.39a6.78,6.78,0,0,0,1.45.31l.06-1.79.18-1.79a7.43,7.43,0,0,1-.76-.2A24.35,24.35,0,0,0,306.87,197.29Z" style="fill:#c7c7c7"></path><path d="M350.18,192.56S348.3,208.69,345,215.5s-7.85,7.55-10.69,7.56H324c-2.85,0-7.43-.74-10.72-7.52s-5.22-22.93-5.22-22.93Z" style="fill:#dbdbdb"></path><polygon points="457.41 224.95 359.99 224.95 363.15 210.1 421.01 210.1 421.01 191.81 450.35 191.81 457.41 224.95" style="fill:#FFC727"></polygon><polygon points="464.81 124.07 356.94 124.07 355.3 117.05 466.44 117.05 464.81 124.07" style="fill:#FFC727"></polygon><polygon points="421.01 124.07 413 154.14 408.38 159.98 373.06 159.98 368.45 154.14 360.44 124.07 421.01 124.07" style="fill:#FFC727"></polygon><polygon points="421.01 124.07 413 154.14 408.38 159.98 373.06 159.98 368.45 154.14 360.44 124.07 421.01 124.07" style="fill:#FFC727"></polygon><polygon points="413 154.14 408.38 159.98 373.06 159.98 368.45 154.14 413 154.14" style="fill:#fff;opacity:0.30000000000000004"></polygon><polygon points="378.71 154.14 373.46 154.14 369.48 124.07 376.08 124.07 378.71 154.14" style="fill:#fff;opacity:0.2"></polygon><polygon points="382 159.98 376.75 159.98 373.46 154.14 378.71 154.14 382 159.98" style="fill:#fff;opacity:0.2"></polygon><polygon points="382.61 154.14 381.25 154.14 378.71 124.07 379.98 124.07 382.61 154.14" style="fill:#fff;opacity:0.2"></polygon><polygon points="385.9 159.98 384.54 159.98 381.25 154.14 382.61 154.14 385.9 159.98" style="fill:#fff;opacity:0.2"></polygon><polygon points="430.71 199.6 442.24 199.6 445.98 217.15 430.71 217.15 430.71 199.6" style="fill:#fff;opacity:0.30000000000000004"></polygon><path d="M440.66,208.38a3.44,3.44,0,1,1-3.44-3.45A3.44,3.44,0,0,1,440.66,208.38Z" style="fill:#263238"></path><polygon points="421.01 191.81 421.01 124.07 461.22 124.07 450.35 191.81 421.01 191.81" style="fill:#FFC727"></polygon><polygon points="430.71 174.51 430.71 135.69 446.85 135.69 440.63 174.51 430.71 174.51" style="fill:#fff;opacity:0.30000000000000004"></polygon><rect x="434.54" y="140.42" width="8.01" height="1.61" style="fill:#263238"></rect><rect x="434.54" y="154.44" width="5.87" height="1.61" style="fill:#263238"></rect><rect x="434.54" y="168.47" width="3.5" height="1.61" style="fill:#263238"></rect><polygon points="360.44 124.07 461.22 124.07 460.47 128.7 361 126.19 360.44 124.07" style="opacity:0.1"></polygon><polygon points="421.01 191.81 450.35 191.81 450.89 194.34 421.01 196.45 421.01 191.81" style="opacity:0.1"></polygon><polygon points="409.4 169.92 409.4 171.39 376.48 171.39 376.48 169.92 379.99 166.77 405.88 166.77 409.4 169.92" style="fill:#455a64"></polygon><rect x="376.48" y="169.92" width="32.92" height="1.47" style="fill:#37474f"></rect><path d="M376.48,177H366.23s-8,7.31-8,15.07v12.77h7.51v5.23H353.16V191.81c0-13.7,12.23-20.42,12.23-20.42h11.09Z" style="fill:#37474f"></path><path d="M420.1,195.5v14.6H365.77V195.5c0-9.1,10.71-18.47,10.71-18.47v-5.64h36.19l-3.27,3.66v2S420.1,186.4,420.1,195.5Z" style="fill:#ebebeb;opacity:0.7000000000000001"></path><path d="M417.69,195.55v13.3h-49.5v-13.3a10.5,10.5,0,0,1,.2-2.09h49.1A10.5,10.5,0,0,1,417.69,195.55Z" style="fill:#FFC727"></path><path d="M417.69,195.55v13.3h-49.5v-13.3a10.5,10.5,0,0,1,.2-2.09h49.1A10.5,10.5,0,0,1,417.69,195.55Z" style="opacity:0.6000000000000001"></path><rect x="365.77" y="204.93" width="54.33" height="5.16" style="fill:#c7c7c7"></rect><rect x="373.46" y="204.93" width="4.28" height="5.16" style="fill:#fff;opacity:0.2"></rect><rect x="379.68" y="204.93" width="1.95" height="5.16" style="fill:#fff;opacity:0.2"></rect><path d="M373.46,204.93h4.28v-10.8c0-8.35,9-17,9-17v-5.7h-3.43V177s-9.86,9.72-9.86,16.79Z" style="fill:#fff;opacity:0.2"></path><path d="M379.68,204.93h1.95v-10.8c0-8.35,9-17,9-17v-5.7h-1.1V177s-9.86,9.72-9.86,16.79Z" style="fill:#fff;opacity:0.2"></path></g><g id="freepik--Character--inject-76"><polygon points="157.68 388.81 88.04 444.96 91.97 444.96 172.39 388.81 157.68 388.81" style="fill:#c7c7c7"></polygon><polygon points="164.22 388.81 129.81 444.96 133.74 444.96 175.91 388.81 164.22 388.81" style="fill:#c7c7c7"></polygon><polygon points="181.09 388.81 215.5 444.96 211.58 444.96 169.41 388.81 181.09 388.81" style="fill:#c7c7c7"></polygon><polygon points="187.11 388.81 256.75 444.96 252.82 444.96 172.39 388.81 187.11 388.81" style="fill:#c7c7c7"></polygon><polygon points="303.33 368.21 303.33 351.78 207.7 347.86 157.19 212.99 41.45 212.99 82.4 368.21 180.24 395.67 186.37 395.67 303.33 368.21" style="fill:#FFC727"></polygon><polygon points="41.45 212.99 54.69 212.99 97.36 354.48 183.92 379 303.33 351.78 303.33 368.21 186.37 395.67 180.24 395.67 82.4 368.21 41.45 212.99" style="opacity:0.1"></polygon><path d="M382.32,444.4c-3.08.07-83.11-24.67-85.56-27.54-.27-.32,1-12.17,3.05-21.57.1-.45-28.42-37.82-28.42-37.82L323,337.42l24.66,51.1L354,401.81s26.7,26.84,29.06,30.28S385.41,444.33,382.32,444.4Z" style="fill:#ebebeb"></path><path d="M384.58,444.85c-3.22.08-86.77-25.42-89.34-28.41-1-1.12.51-6.29,4.57-21.15l54.77,6.59s28.27,26.55,30.74,30.13S387.79,444.76,384.58,444.85Z" style="fill:#FFC727"></path><path d="M384.58,444.85c-3.22.08-86.77-25.42-89.34-28.41-1-1.12.51-6.29,4.57-21.15l54.77,6.59s28.27,26.55,30.74,30.13S387.79,444.76,384.58,444.85Z" style="opacity:0.2"></path><path d="M384.4,441.14c-13.9-4.62-70.4-21.94-84.49-25.45-.12,0-.14.05,0,.09,13.68,4.88,70.32,21.74,84.45,25.59C384.63,441.45,384.69,441.24,384.4,441.14Z" style="fill:#263238"></path><path d="M380.87,427.36a11.8,11.8,0,0,0-9.43.86,11.41,11.41,0,0,0-5.41,6.52c0,.09.13.14.17.06a13.58,13.58,0,0,1,14.61-7.26A.1.1,0,0,0,380.87,427.36Z" style="fill:#263238"></path><path d="M360.24,407.41c-5.58-1.79-12.68-1.8-17.57,1.72-.19.14,0,.41.2.37a81.16,81.16,0,0,1,17.26-1.37A.37.37,0,0,0,360.24,407.41Z" style="fill:#263238"></path><path d="M364.05,410.42c-5.58-1.79-12.68-1.8-17.56,1.72-.19.14,0,.41.2.37a81,81,0,0,1,17.25-1.38A.36.36,0,0,0,364.05,410.42Z" style="fill:#263238"></path><path d="M367.87,413.42c-5.59-1.79-12.69-1.79-17.57,1.73-.19.14,0,.4.2.37a81,81,0,0,1,17.25-1.38A.37.37,0,0,0,367.87,413.42Z" style="fill:#263238"></path><path d="M371.68,416.43c-5.58-1.79-12.69-1.79-17.57,1.73-.19.13,0,.4.2.37a81.12,81.12,0,0,1,17.25-1.38A.37.37,0,0,0,371.68,416.43Z" style="fill:#263238"></path><path d="M370.86,394.3c-2.11-3.22-6.39-2-8.89-.1A30.75,30.75,0,0,0,352.5,407a.16.16,0,0,0,.13.21c0,.44.37.92.87.76,4.83-1.54,10.19-2.59,14.41-5.57C370.37,400.64,372.87,397.34,370.86,394.3Zm-10.51,9.81c-2.36.82-4.74,1.51-7.07,2.42a91.62,91.62,0,0,1,5.69-7.34,34.07,34.07,0,0,1,3.2-3.16c1.79-1.48,8.72-4.49,7.42,1.78C368.87,401.27,363.16,403.14,360.35,404.11Z" style="fill:#263238"></path><path d="M337.94,404.8c4.65,2.24,10.11,2.39,15.14,3.11a.72.72,0,0,0,.73-.89.16.16,0,0,0,.09-.24,30.79,30.79,0,0,0-11.46-11c-2.78-1.47-7.19-1.95-8.75,1.57C332.22,400.66,335.23,403.5,337.94,404.8Zm-2.41-4.22c-2.32-6,5-4.15,7-3a35.77,35.77,0,0,1,3.68,2.58,92.47,92.47,0,0,1,6.83,6.3c-2.45-.5-4.91-.8-7.38-1.21C342.75,404.77,336.81,403.87,335.53,400.58Z" style="fill:#263238"></path><path d="M350.22,390.91l-56.83,8.39S262.37,343,249.84,329l0,0a20.48,20.48,0,0,0-2.29-2.24h0a11.71,11.71,0,0,0-4.1-1h0c-16.8-2-73.36,3.46-112.45.93l18.25-24.4,8.09-10.82c44-5,98.07-23,122.45-10.79C306.2,293.87,350.22,390.91,350.22,390.91Z" style="fill:#263238"></path><path d="M343.1,381.25c-9.66,1.25-6.91.76-16.55,2.11-4.73.66-28.46,3.91-32.76,5.26a.1.1,0,0,0,0,.19c4.51,0,28.17-3.74,32.88-4.48,9.62-1.52,6.84-1.18,16.45-2.81A.14.14,0,0,0,343.1,381.25Z" style="fill:#37474f"></path><path d="M293.68,387.83C287.25,377.07,258,324,252.13,321.9c-5.3-1.9-111.46.31-113,.32-.11,0-.12.17,0,.17,12.57-.16,109.6-.51,112.37.59,5.75,2.27,40.77,63.85,41.63,65.14C293.32,388.46,293.9,388.2,293.68,387.83Z" style="fill:#37474f"></path><path d="M101.23,304.4s-3.35,32,12.89,47.93c19.43,19.06,147.71,14.25,167.59,7.82s20.5-38.5-1.23-45.94c-20.67-7.07-112.33-11.13-114.5-12s-8.53-11-8.53-11Z" style="fill:#263238"></path><path d="M128.38,303.5c0-.15-.27-.1-.27,0A17.64,17.64,0,0,1,124,314.9c-3,3.52-7.53,5.49-11.6,7.54-.39.2-.1.81.31.69a35.6,35.6,0,0,0,7.18-3.09,17.48,17.48,0,0,0,5.4-4.49A15.47,15.47,0,0,0,128.38,303.5Z" style="fill:#37474f"></path><path d="M165.1,300.22c-.9-1.16-1.89-2.26-2.84-3.39-2.24-2.66-4.49-5.34-6.84-7.91-.22-.25-.65.1-.45.37,1.58,2.06,3.26,4.06,4.9,6.08l2.54,3.09a18.64,18.64,0,0,1,2.38,3c.61,1.14-.2,2.12-1.38,2.25a4.14,4.14,0,0,1-2.86-1.05,37.84,37.84,0,0,1-4.85-5.19c-.95-1.06-1.89-2.12-2.85-3.17s-2.1-2.17-3.12-3.28c-.06-.07-.19,0-.13.11.89,1.21,1.71,2.49,2.6,3.7s1.79,2.43,2.7,3.63,1.77,2.24,2.69,3.33a11.19,11.19,0,0,0,2.74,2.44c1.7,1,4.65,1.21,5.55-1A3.08,3.08,0,0,0,165.1,300.22Z" style="fill:#37474f"></path><path d="M279,360.27c-6.85.13-13.69.53-20.53.67s-13.58.19-20.37.12q-20.46-.19-40.88-1.59c-13.75-1-28.58-2.32-42.24-4.21-6.54-.91-13.16-1.66-19.62-3.05a31,31,0,0,1-15.48-7.9c-8.84-8.58-12.28-21.2-13.7-33.25-.19-1.62-.34-3.24-.47-4.86,0-.11-.18-.11-.17,0,.8,12.36,2.72,25.25,10.49,35.18a31,31,0,0,0,12.66,9.83c6.12,2.45,12.91,3,19.37,3.9,13.71,1.86,28.6,3.3,42.39,4.37s27.8,1.75,41.72,1.95,27.84,0,41.75-.67c1.69-.09,3.39-.19,5.08-.33C279.09,360.42,279.09,360.27,279,360.27Z" style="fill:#37474f"></path><path d="M297.26,330.36a22,22,0,0,0-9.16-13.11c-4.93-3.37-10.82-4.9-16.66-5.75-6.6-1-13.28-1.45-19.92-2.09q-20.42-2-40.88-3.67c-13.62-1.12-43-3.4-44.62-3.46-.15,0-.18.24,0,.25,13.15,1.46,25.12,2.72,38.3,3.92s26.49,2.46,39.72,3.77q9.9,1,19.78,2c6.11.63,12.39,1.25,18.12,3.61,4.92,2,9.34,5.28,11.84,10.06a23.53,23.53,0,0,1,2,15.22A26.75,26.75,0,0,1,289.36,354a22.78,22.78,0,0,1-11.92,7.19c-1.2.26-2.66.45-3.77.67-.08,0-.17.2-.08.2,9.85.25,19-6.95,22.52-15.95A26.33,26.33,0,0,0,297.26,330.36Z" style="fill:#37474f"></path><path d="M149.94,225.5c7.39,21.29,22.53,53.24,29.29,56.19,11.26,4.91,37.44,8.25,52.94,7.53,4.89-.23,1.44-36.44-3.87-36.65-13.69-.54-34.08-.72-35.5-1.07-2.57-.62-18.15-18.67-30-32.71C151.67,205.54,146.46,215.46,149.94,225.5Z" style="fill:#eb9481"></path><path d="M248.88,283.59c-2.12.67-1.78,1.79,1.93,3.18s19.57,3.74,18.28,9.2-23.62,1.83-29.62-1-14.73-9.39-14.73-9.39C229.23,285.46,240.08,284,248.88,283.59Z" style="fill:#eb9481"></path><path d="M227.17,252.64c12.66,0,28.42-.77,40.72,6.48a7,7,0,0,1,3.09,3.45c5.58,3.15,5.76,6.73,5.76,6.73,4.3,4.52,4,8.2,4,8.2s6.51,3.77,4.88,8.08c-1.81,4.84-10.59-1.4-17.51-1.88-15.87-1.1-38.74,1.78-43.35,1.92Z" style="fill:#eb9481"></path><path d="M252.26,270.86a103.68,103.68,0,0,1,13.84,1.75,103.63,103.63,0,0,1,14.46,5,.12.12,0,0,0,.11-.22c-8.12-4.75-19-7.15-28.39-6.7C252.05,270.66,252,270.84,252.26,270.86Z" style="fill:#263238"></path><path d="M251.54,261.19c4.51.65,12.44,1.86,25.14,8.24,0,0,.09,0,0-.07A48.54,48.54,0,0,0,251.57,261C251.28,261,251.24,261.14,251.54,261.19Z" style="fill:#263238"></path><path d="M251.24,256c7.64,1.41,12.27,3.27,19.7,6.61,0,0,.09,0,0-.08-8-4.68-11.49-5.47-19.73-6.8C251,255.67,250.94,255.93,251.24,256Z" style="fill:#263238"></path><path d="M225.36,252.05l-2,39.49s-41.32-3.64-47.1-9.9S152.51,239.11,149,224.35s5.6-16,13.83-6.59,29.27,32.18,30.37,32.41S225.36,252.05,225.36,252.05Z" style="fill:#455a64"></path><path d="M215.51,280.59q.18-3.22.37-6.44c.25-4.2.56-8.39.87-12.58.17-2.31.38-4.63.48-6.95,0-.14-.21-.15-.23,0-.7,4.13-1.06,8.32-1.4,12.49s-.6,8.28-.73,12.43c-.07,2.38,0,4.75,0,7.14,0,.08.15.09.16,0C215.16,284.64,215.39,282.62,215.51,280.59Z" style="fill:#263238"></path><path d="M204.07,289.26c-11.63-1.7-24.77-4.29-27.85-7.62-5.79-6.27-23.71-42.53-27.26-57.29-1.29-5.39-.9-9,.54-10.91Z" style="fill:#263238"></path><path d="M98.4,313.67l78-19.26c1.05-1.2-9.6-64.45-23.06-82.25-3.36-4.45-14.79-4.75-20.12-.7C106.86,231.5,98.44,312.64,98.4,313.67Z" style="fill:#455a64"></path><path d="M233.52,246.8s16.63-7.7,16.62-18S228.53,212,228.51,203.93s9.4-12.77,9.4-12.77-14.86,5.1-14.85,15.26,14.26,17,15.63,23.49C240.59,238.88,233.52,246.8,233.52,246.8Z" style="fill:#ebebeb;opacity:0.6000000000000001"></path><path d="M234.34,246.8s-16.65-6-16.66-14.09,21.56-13.32,21.55-19.63-9.43-10-9.43-10,14.88,4,14.89,12-16.32,13.51-17.48,20S234.34,246.8,234.34,246.8Z" style="fill:#ebebeb;opacity:0.6000000000000001"></path><rect x="225.82" y="272.64" width="15.83" height="2.47" transform="translate(-0.42 0.36) rotate(-0.09)" style="fill:#FFC727"></rect><rect x="225.82" y="272.64" width="15.83" height="1.63" transform="translate(-0.42 0.36) rotate(-0.09)" style="opacity:0.1"></rect><path d="M207,266a8.75,8.75,0,0,0,10.52,3.34,11.27,11.27,0,0,0,2.24-1.18l-2-3a7.66,7.66,0,0,1-1.19.67A5.25,5.25,0,0,1,210,264c-2.18-3-3-10-.77-12.69.15-.2.78-.52,3.33,0,.47.11,1,.22,1.61.39a6.21,6.21,0,0,0,1.45.31l.06-1.79.17-1.79-.76-.19a22.79,22.79,0,0,0-3.6-.75c-1.87-.19-3.84,0-5,1.52C202.83,253.38,204.29,262.22,207,266Z" style="fill:#FFC727"></path><path d="M217.77,265.22a7.66,7.66,0,0,1-1.19.67l1,3.49a11.27,11.27,0,0,0,2.24-1.18Z" style="opacity:0.1"></path><path d="M211.44,247.47l1.07,3.82c.47.11,1,.22,1.61.39a6.21,6.21,0,0,0,1.45.31l.06-1.79.17-1.79-.76-.19A22.79,22.79,0,0,0,211.44,247.47Z" style="opacity:0.1"></path><path d="M254.75,242.74s-1.87,16.14-5.14,22.94-7.85,7.56-10.7,7.56H228.56c-2.84,0-7.42-.75-10.71-7.53s-5.22-22.93-5.22-22.93Z" style="fill:#FFC727"></path><g style="opacity:0.1"><path d="M252.52,256.14c-.32,1.49-.68,3-1.07,4.34l-35.46.06c-.4-1.38-.76-2.85-1.09-4.34Z"></path><path d="M251,262.13c-.24.77-.49,1.5-.75,2.17l-33,.05c-.27-.67-.52-1.4-.77-2.17Z"></path><path d="M253.33,252.06c-.13.71-.26,1.43-.41,2.17l-38.41.06c-.16-.74-.3-1.46-.43-2.17Z"></path></g><path d="M124.51,229.49c-11.27,30.8-10.83,57.72-6.43,62.16,9.59,9.68,51.27-1,61.69-2.49,4.21-.59-8.51-34.26-12.91-33.11-10.36,2.72-25.11,7.83-25.64,7.68-1.06-.3,0-9.61-1.37-34.25C138.77,209.54,129.12,216.9,124.51,229.49Z" style="fill:#eb9481"></path><path d="M219.52,249.89c.28,4.17-10.06,4-10.06,4a7.71,7.71,0,0,1,3.39,4c1,3-3.35,5.88-3.35,5.88a9.5,9.5,0,0,1,2.92,4.78c.63,3-3.32,6.49-3.32,6.49a8.69,8.69,0,0,1-.09,5.82c-3.4,8.23-26.44,9.77-33.1,8.82l-10.84-32.34s18.48-13.69,27.81-14.67C198.06,242.13,219.08,243.52,219.52,249.89Z" style="fill:#eb9481"></path><path d="M209.36,253.78c-5.55-1.24-11.39-1.15-17-1a.1.1,0,0,0,0,.19c5.61.18,11.4,1.07,17,1.08A.14.14,0,0,0,209.36,253.78Z" style="fill:#263238"></path><path d="M209.41,263.59a14.83,14.83,0,0,0-3.88,0c-1.37.11-2.74.24-4.1.39-2.74.3-5.47.66-8.19,1.1-.12,0-.12.21,0,.2,2.73-.3,5.46-.55,8.2-.73l4.11-.24a17.25,17.25,0,0,0,3.86-.37A.2.2,0,0,0,209.41,263.59Z" style="fill:#263238"></path><path d="M209,275.05a10.28,10.28,0,0,0-3.49.21l-3.73.47c-2.49.3-5,.59-7.48.8-.13,0-.12.21,0,.2,2.54-.2,5.09-.37,7.62-.59l3.74-.35a9.76,9.76,0,0,0,3.36-.62C209.06,275.15,209,275.06,209,275.05Z" style="fill:#263238"></path><path d="M209.57,277.86a6.93,6.93,0,0,1-1.25,4.66,9.82,9.82,0,0,1-3.84,3.07,41.66,41.66,0,0,1-9.23,3.18,61.3,61.3,0,0,1-9.63,1.43,53.71,53.71,0,0,1-9.74-.22H176c-2.42.43-4.86.83-7.29,1.2q3.57-.94,7.17-1.79h.09a65.46,65.46,0,0,0,9.6-.17,76,76,0,0,0,9.49-1.43,52.31,52.31,0,0,0,9.14-2.83,10,10,0,0,0,3.8-2.71A7,7,0,0,0,209.57,277.86Z" style="fill:#263238"></path><path d="M165.44,255.42l6.95,37.87S121,303.39,116,291.21s1.5-51.07,9.92-66.39,13.49-7.06,14.43,4,1.36,33.26,1.59,33.25S165.44,255.42,165.44,255.42Z" style="fill:#455a64"></path><path d="M162,286l-1-6.37q-1-6.22-1.84-12.47c-.32-2.3-.62-4.6-1-6.89a.12.12,0,0,0-.24,0c.2,4.19.75,8.36,1.31,12.51s1.2,8.21,1.95,12.29c.44,2.34,1,4.65,1.54,7,0,.08.17.06.16,0C162.52,290,162.31,288,162,286Z" style="fill:#263238"></path><path d="M173,293.68c-.23-1.3-.46-2.59-.77-3.88a.22.22,0,0,0-.43.07c0,1.2.15,2.39.27,3.58a153.81,153.81,0,0,1-21.6,2.81,129.66,129.66,0,0,1-22.11-.78c-1.79-.21-3.59-.42-5.36-.77a8,8,0,0,1-4.18-2c-2.37-2.27-3-5.63-3.27-8.78-.26-3.63-.21-7.3-.11-10.94s.35-7.36.72-11c.41-4.11,1-8.19,1.71-12.26s1.48-8.21,2.49-12.25c0-.09-.12-.13-.15,0q-.95,3.31-1.76,6.66c0-.2,0-.39,0-.58,0-.75,0-1.5,0-2.24a.08.08,0,0,0-.16,0,9.29,9.29,0,0,0-.31,2.22c0,.38,0,.75,0,1.13,0,.23,0,.48.07.72a136.67,136.67,0,0,0-2.59,14.41,164.36,164.36,0,0,0-1.17,22.62c.05,3.3.39,6.76,2.26,9.59a8.83,8.83,0,0,0,3.2,3,16.13,16.13,0,0,0,5.12,1.33,126.45,126.45,0,0,0,22.42,1.34,112.59,112.59,0,0,0,25.31-3.36A.47.47,0,0,0,173,293.68Z" style="fill:#263238"></path><path d="M165.57,255.34a.27.27,0,0,0-.33-.25c-2,.44-4,1-6,1.56s-4,1-5.93,1.57c-3.72,1-7.43,2.12-11.09,3.35a38.73,38.73,0,0,0,0-5.7c-.09-2.2-.2-4.39-.33-6.59s-.26-4.53-.4-6.79a14.15,14.15,0,0,0,.4-1.71,11.34,11.34,0,0,0,.06-2.47c0-.05-.09-.07-.1,0-.09.81-.26,1.62-.37,2.43,0,.18-.06.37-.08.55-.13-1.77-.27-3.54-.45-5.31,0-.06-.1-.06-.1,0-.07,4.44.08,8.87.21,13.32.06,2.2.13,4.4.23,6.6a37.57,37.57,0,0,0,.54,5.8l-.11,0a46.21,46.21,0,0,0-6.11,2.58c-.08,0,0,.16.06.14,4.9-1.43,9.74-3.08,14.64-4.49,2.48-.71,5-1.4,7.44-2.12s5-1.35,7.4-2.16c.07.27.13.55.22.82a.15.15,0,0,0,.3-.05C165.64,256.08,165.6,255.71,165.57,255.34Z" style="fill:#263238"></path><path d="M134.8,189.23a35.06,35.06,0,0,1-.22,6.29c-.41,1.61-4.05,3.31-4.05,3.31s4.14,1.47,5.32,1.19,3.08-3.3,3.08-3.3-1.75,4.83-3.43,5.08c-1.05.16,2.56.2,2.56.2a4.87,4.87,0,0,0,3.16-1.46C142.45,199.15,134.8,189.23,134.8,189.23Z" style="fill:#263238"></path><path d="M150.26,224c-3.49.12-10.65-6.47-13.42-12-.19-.38.52-4.27,1.16-9,.38-2.89.73-6.12.83-9.09L157.3,199a47.67,47.67,0,0,0-2.21,11.34,6.8,6.8,0,0,0,.09,1.22c0,.06,0,.13,0,.21C155.49,214.14,155.71,223.76,150.26,224Z" style="fill:#eb9481"></path><path d="M155.17,211.6a1.05,1.05,0,0,1,0,.21,12.08,12.08,0,0,1-1.92,0c-10.59-.63-12.72-13.63-13.11-17.63L157.31,199a47.58,47.58,0,0,0-2.22,11.35A8,8,0,0,0,155.17,211.6Z" style="fill:#263238"></path><path d="M136,170.42c-2.36,6.5.11,25.76,4.59,30.26,6.48,6.52,17.59,7.7,23.26-.21,5.5-7.66,1.83-32.7-3.22-36.84C153.25,157.53,139.53,160.83,136,170.42Z" style="fill:#eb9481"></path><path d="M150,179.45a17.24,17.24,0,0,0,1.57-.73,2.84,2.84,0,0,0,1.46-1.05.88.88,0,0,0-.25-1.06,2.22,2.22,0,0,0-2.24,0,3.3,3.3,0,0,0-1.73,1.58A1,1,0,0,0,150,179.45Z" style="fill:#263238"></path><path d="M162.85,178.19a16.47,16.47,0,0,1-1.71-.28,2.8,2.8,0,0,1-1.69-.6.9.9,0,0,1-.06-1.09,2.22,2.22,0,0,1,2.16-.63,3.28,3.28,0,0,1,2.09,1A1,1,0,0,1,162.85,178.19Z" style="fill:#263238"></path><path d="M152.42,194.49c.34.27.69.66,1.16.66a3.39,3.39,0,0,0,1.37-.47.05.05,0,0,1,.07.07,1.77,1.77,0,0,1-1.59.86,1.36,1.36,0,0,1-1.13-1.05C152.27,194.49,152.37,194.45,152.42,194.49Z" style="fill:#263238"></path><path d="M153.41,190.46a4.42,4.42,0,0,0,3.15,1.68,5.4,5.4,0,0,0,1.6-.08,1.45,1.45,0,0,0,.3-.06l.28-.07a.32.32,0,0,0,.23-.32h0a.59.59,0,0,0,0-.13h0v-.11c-.07-1-.31-2.52-.31-2.52.38.14,2.33.8,2.25.28a66.63,66.63,0,0,0-3-13.24.12.12,0,0,0-.23,0c.48,4.17,1.7,8.22,2.26,12.4a7.8,7.8,0,0,0-2.15-.43c-.14.05.52,2.92.52,3.37a.18.18,0,0,1,0,.05,6.16,6.16,0,0,1-4.72-1C153.41,190.27,153.32,190.36,153.41,190.46Z" style="fill:#263238"></path><path d="M157.52,191.61a5.34,5.34,0,0,1-2,1.84,2.46,2.46,0,0,1-1.43.23c-1.06-.18-1.18-1.13-1.07-2a5.88,5.88,0,0,1,.34-1.3A6.82,6.82,0,0,0,157.52,191.61Z" style="fill:#263238"></path><path d="M155.57,193.45a2.46,2.46,0,0,1-1.43.23c-1.06-.18-1.18-1.13-1.07-2A2.45,2.45,0,0,1,155.57,193.45Z" style="fill:#ff9bbc"></path><path d="M150.75,183.86a1.85,1.85,0,0,0,.49.92,1.38,1.38,0,0,0,1.06.39,1.25,1.25,0,0,0,1-.6,2.16,2.16,0,0,0,.31-1,4.14,4.14,0,0,0,0-.61,2.75,2.75,0,0,0-.36-1.23,4.85,4.85,0,0,1,0,.93,7.19,7.19,0,0,1-.13.83c-.14.56-.43,1-.86,1s-.82-.31-1-.84a8.94,8.94,0,0,1-.47-1.73A4,4,0,0,0,150.75,183.86Z" style="fill:#263238"></path><path d="M160.71,182.88a2,2,0,0,0,.36,1,1.4,1.4,0,0,0,1,.53,1.26,1.26,0,0,0,1.05-.46,2.13,2.13,0,0,0,.43-.93,4.28,4.28,0,0,0,.09-.61,2.81,2.81,0,0,0-.2-1.26,4.06,4.06,0,0,1-.11.92,5.41,5.41,0,0,1-.24.81c-.21.53-.55,1-1,.91s-.77-.41-.92-1A10,10,0,0,1,161,181,3.88,3.88,0,0,0,160.71,182.88Z" style="fill:#263238"></path><path d="M136.48,187.52c3.48-1.21,4.6-13.17,4.6-13.17l1,6.48a15.65,15.65,0,0,0,3.71-5.35,11.57,11.57,0,0,0-.08-6.46,28,28,0,0,0,8.94,4c1.68.35,12.45-.06,12.41-.82-.13-2.27-3.85-9.84-7.05-11.76-3.69-2.21-12.2-4.92-19.36-1.7-5.72,2.57-4.9,7.06-6,10.3,0,0-4.06,3.66-4.17,5.42C130.3,178.24,135.21,188,136.48,187.52Z" style="fill:#263238"></path><path d="M139.3,186.18s-4.12-6.31-7-4.86.1,10.5,3.35,11.83a3.35,3.35,0,0,0,4.54-1.65Z" style="fill:#eb9481"></path><path d="M133.24,183.89c-.05,0-.06.07,0,.09,2.28,1,3.42,3.19,4.2,5.43a1.86,1.86,0,0,0-2.75-.6.07.07,0,0,0,.06.13,2.05,2.05,0,0,1,2.24.79,10,10,0,0,1,1,1.87c.11.21.48.11.41-.13a.08.08,0,0,0,0-.05C138.54,188.48,136.39,184.29,133.24,183.89Z" style="fill:#263238"></path><path d="M155.15,209.4,151.94,221,136.61,208.5l-3.39,4.93s15.94,20.76,15.91,19.74l3.5-10L160,229l-2.39-16.61Z" style="fill:#ebebeb"></path><path d="M159.24,220.74c-.49-2.73-.9-5.49-1.51-8.19,0-.1-.18-.13-.19,0-.26,2.72,1.66,13.15,1.93,15.67l0,0c-.31-.25-6.76-5.16-6.81-5.06-.82,1.62-3.39,8.95-3.55,9.61-2.52-3.3-12.12-15.25-15-18.31a.1.1,0,0,0-.16.11c2.3,3.53,15,19.63,15.19,19.57a109.66,109.66,0,0,0,3.65-10.63c1.12,1.1,7.71,6.72,7.68,6.3A86.16,86.16,0,0,0,159.24,220.74Z" style="fill:#263238"></path></g></svg>
